# xmcd CD database file
#
# Track frame offsets:
#	150
#	3900
#	19375
#	36372
#	54692
#	74780
#	93987
#	112932
#	132752
#	149967
#	169450
#	184882
#	202762
#	228845
#
# Disc length: 3325 seconds
#
# Revision: 1
# Processed by: cddbd v1.5.2PL0 Copyright (c) Steve Scherf et al.
# Submitted via: CDex 1.70beta3
#
DISCID=cc0cfb0e
DTITLE=Radioactive - Taken
DYEAR=2005
DGENRE=Melodic Rock
TTITLE0=C.O.W.
TTITLE1=Taken
TTITLE2=Stronger Than Yesterday
TTITLE3=Hit Her Where It Hurts
TTITLE4=Easy's Gettin' Harder
TTITLE5=This I Promise You
TTITLE6=Forgivness
TTITLE7=Shattered
TTITLE8=Premonition
TTITLE9=Carry On
TTITLE10=Love Is On Your Mind
TTITLE11=Sinner
TTITLE12=Never Gonna Let Her Go
TTITLE13=The Darkness Inside (Bonus Tracks)
EXTD=YEAR: 2005
EXTT0=
EXTT1=
EXTT2=
EXTT3=
EXTT4=
EXTT5=
EXTT6=
EXTT7=
EXTT8=
EXTT9=
EXTT10=
EXTT11=
EXTT12=
EXTT13=
PLAYORDER=
